<svg width="365" height="122" viewBox="0 0 365 122" fill="none" xmlns="http://www.w3.org/2000/svg">
<path d="M37.9347 51.7882C38.2632 51.7882 38.5259 51.9196 38.723 52.1824C38.9857 52.3794 39.1171 52.6422 39.1171 52.9706V60.459C39.1171 60.7875 38.9857 61.0831 38.723 61.3458C38.5259 61.5429 38.2632 61.6414 37.9347 61.6414H25.4212C25.0928 61.6414 24.9285 61.8056 24.9285 62.1341V119.578C24.9285 119.906 24.7972 120.202 24.5344 120.465C24.3373 120.662 24.0746 120.76 23.7462 120.76H14.6812C14.3528 120.76 14.0572 120.662 13.7944 120.465C13.5974 120.202 13.4989 119.906 13.4989 119.578V62.1341C13.4989 61.8056 13.3346 61.6414 13.0062 61.6414H1.18238C0.853942 61.6414 0.558347 61.5429 0.295595 61.3458C0.0985318 61.0831 0 60.7875 0 60.459V52.9706C0 52.6422 0.0985318 52.3794 0.295595 52.1824C0.558347 51.9196 0.853942 51.7882 1.18238 51.7882H37.9347Z" fill="#364C63"/>
<path d="M62.374 121.549C56.7248 121.549 52.1595 119.841 48.6781 116.425C45.2623 113.009 43.5544 108.477 43.5544 102.828V69.721C43.5544 64.0719 45.2623 59.5394 48.6781 56.1236C52.1595 52.7079 56.7248 51 62.374 51C68.0231 51 72.5884 52.7079 76.0699 56.1236C79.5514 59.5394 81.2921 64.0719 81.2921 69.721V102.828C81.2921 108.477 79.5514 113.009 76.0699 116.425C72.5884 119.841 68.0231 121.549 62.374 121.549ZM62.374 111.696C64.6074 111.696 66.4138 110.94 67.7932 109.429C69.1727 107.853 69.8624 105.816 69.8624 103.32V69.2284C69.8624 66.7322 69.1727 64.7287 67.7932 63.2179C66.4138 61.6414 64.6074 60.8532 62.374 60.8532C60.1406 60.8532 58.3342 61.6414 56.9547 63.2179C55.641 64.7287 54.9841 66.7322 54.9841 69.2284V103.32C54.9841 105.816 55.641 107.853 56.9547 109.429C58.3342 110.94 60.1406 111.696 62.374 111.696Z" fill="#364C63"/>
<path d="M111.698 120.76C111.37 120.76 111.074 120.662 110.811 120.465C110.614 120.202 110.516 119.906 110.516 119.578V52.9706C110.516 52.6422 110.614 52.3794 110.811 52.1824C111.074 51.9196 111.37 51.7882 111.698 51.7882H128.547C134.196 51.7882 138.696 53.4961 142.046 56.9119C145.462 60.3277 147.17 64.893 147.17 70.6078V101.941C147.17 107.656 145.462 112.221 142.046 115.637C138.696 119.053 134.196 120.76 128.547 120.76H111.698ZM121.946 110.415C121.946 110.743 122.11 110.907 122.438 110.907L128.35 110.809C130.518 110.809 132.259 109.955 133.572 108.247C134.952 106.473 135.674 104.141 135.74 101.251V71.2975C135.74 68.3416 135.05 66.0097 133.671 64.3018C132.357 62.5282 130.551 61.6414 128.252 61.6414H122.438C122.11 61.6414 121.946 61.8056 121.946 62.1341V110.415Z" fill="#364C63"/>
<path d="M174.658 121.549C169.009 121.549 164.444 119.841 160.962 116.425C157.546 113.009 155.838 108.477 155.838 102.828V69.721C155.838 64.0719 157.546 59.5394 160.962 56.1236C164.444 52.7079 169.009 51 174.658 51C180.307 51 184.872 52.7079 188.354 56.1236C191.835 59.5394 193.576 64.0719 193.576 69.721V102.828C193.576 108.477 191.835 113.009 188.354 116.425C184.872 119.841 180.307 121.549 174.658 121.549ZM174.658 111.696C176.891 111.696 178.698 110.94 180.077 109.429C181.457 107.853 182.146 105.816 182.146 103.32V69.2284C182.146 66.7322 181.457 64.7287 180.077 63.2179C178.698 61.6414 176.891 60.8532 174.658 60.8532C172.425 60.8532 170.618 61.6414 169.239 63.2179C167.925 64.7287 167.268 66.7322 167.268 69.2284V103.32C167.268 105.816 167.925 107.853 169.239 109.429C170.618 110.94 172.425 111.696 174.658 111.696Z" fill="#364C63"/>
<path d="M223.982 120.76C223.654 120.76 223.358 120.662 223.095 120.465C222.898 120.202 222.8 119.906 222.8 119.578V52.9706C222.8 52.6422 222.898 52.3794 223.095 52.1824C223.358 51.9196 223.654 51.7882 223.982 51.7882H233.047C233.376 51.7882 233.638 51.9196 233.835 52.1824C234.098 52.3794 234.23 52.6422 234.23 52.9706V110.415C234.23 110.743 234.394 110.907 234.722 110.907H256.005C256.333 110.907 256.596 111.039 256.793 111.301C257.056 111.498 257.187 111.761 257.187 112.09V119.578C257.187 119.906 257.056 120.202 256.793 120.465C256.596 120.662 256.333 120.76 256.005 120.76H223.982Z" fill="#364C63"/>
<path d="M264.906 120.76C264.578 120.76 264.282 120.662 264.02 120.465C263.822 120.202 263.724 119.906 263.724 119.578V52.9706C263.724 52.6422 263.822 52.3794 264.02 52.1824C264.282 51.9196 264.578 51.7882 264.906 51.7882H273.971C274.3 51.7882 274.562 51.9196 274.76 52.1824C275.022 52.3794 275.154 52.6422 275.154 52.9706V119.578C275.154 119.906 275.022 120.202 274.76 120.465C274.562 120.662 274.3 120.76 273.971 120.76H264.906Z" fill="#364C63"/>
<path d="M302.046 121.549C296.594 121.549 292.193 119.907 288.843 116.622C285.493 113.338 283.818 109.035 283.818 103.714V101.153C283.818 100.824 283.916 100.561 284.113 100.364C284.376 100.102 284.672 99.9703 285 99.9703H293.967C294.295 99.9703 294.558 100.102 294.755 100.364C295.018 100.561 295.149 100.824 295.149 101.153V103.123C295.149 105.685 295.773 107.754 297.021 109.331C298.335 110.907 300.01 111.696 302.046 111.696C304.083 111.696 305.758 110.973 307.071 109.528C308.385 108.017 309.042 106.046 309.042 103.616C309.042 101.908 308.681 100.43 307.958 99.182C307.236 97.9339 306.217 96.7516 304.904 95.6349C303.59 94.5182 301.488 92.9088 298.598 90.8068C295.313 88.442 292.653 86.34 290.616 84.5008C288.646 82.6615 286.971 80.461 285.591 77.8992C284.278 75.2716 283.621 72.25 283.621 68.8342C283.621 63.3821 285.263 59.0468 288.547 55.828C291.832 52.6093 296.167 51 301.554 51C307.006 51 311.407 52.7079 314.757 56.1236C318.107 59.4737 319.782 63.9405 319.782 69.524V71.8887C319.782 72.2172 319.651 72.5128 319.388 72.7755C319.191 72.9726 318.928 73.0711 318.6 73.0711H309.732C309.403 73.0711 309.108 72.9726 308.845 72.7755C308.648 72.5128 308.549 72.2172 308.549 71.8887V69.3269C308.549 66.7651 307.892 64.7287 306.579 63.2179C305.331 61.6414 303.656 60.8532 301.554 60.8532C299.583 60.8532 297.974 61.5757 296.725 63.0209C295.477 64.4003 294.853 66.3381 294.853 68.8342C294.853 71.199 295.51 73.2025 296.824 74.8447C298.203 76.4869 300.864 78.7531 304.805 81.6434C308.812 84.5993 311.834 87.0298 313.87 88.9347C315.906 90.774 317.483 92.8103 318.6 95.0437C319.716 97.2771 320.275 99.9374 320.275 103.025C320.275 108.608 318.6 113.108 315.249 116.524C311.899 119.874 307.498 121.549 302.046 121.549Z" fill="#364C63"/>
<path d="M363.048 51.7882C363.376 51.7882 363.639 51.9196 363.836 52.1824C364.099 52.3794 364.23 52.6422 364.23 52.9706V60.459C364.23 60.7875 364.099 61.0831 363.836 61.3458C363.639 61.5429 363.376 61.6414 363.048 61.6414H350.534C350.206 61.6414 350.041 61.8056 350.041 62.1341V119.578C350.041 119.906 349.91 120.202 349.647 120.465C349.45 120.662 349.188 120.76 348.859 120.76H339.794C339.466 120.76 339.17 120.662 338.907 120.465C338.71 120.202 338.612 119.906 338.612 119.578V62.1341C338.612 61.8056 338.448 61.6414 338.119 61.6414H326.295C325.967 61.6414 325.671 61.5429 325.409 61.3458C325.211 61.0831 325.113 60.7875 325.113 60.459V52.9706C325.113 52.6422 325.211 52.3794 325.409 52.1824C325.671 51.9196 325.967 51.7882 326.295 51.7882H363.048Z" fill="#364C63"/>
<path d="M171.786 10.2138L192.999 31.427M192.999 10.9994L171.786 32.2126" stroke="#F3B340" stroke-width="6"/>
<line x1="163" y1="22.5" x2="3.0598e-07" y2="22.5" stroke="#F094A7" stroke-width="7"/>
<line x1="364" y1="22.5" x2="201" y2="22.5" stroke="#F094A7" stroke-width="7"/>
</svg>
